<svg xmlns="http://www.w3.org/2000/svg" width="861" height="712" viewBox="0 0 861 712" version="1.1">
<path d="M 252.808 21.547 C 245.708 23.269, 235.622 27.798, 229.313 32.098 C 215.045 41.821, 196.526 63.901, 182.120 88.367 C 154.085 135.976, 123.595 221.525, 106.407 300.800 C 101.357 324.093, 96.705 349.339, 95.406 360.500 C 94.849 365.288, 92.910 370.034, 85.806 383.989 C 66.662 421.599, 50.700 440.071, 35.250 442.491 C 23.792 444.286, 24.395 444.084, 26.304 445.480 C 27.884 446.636, 27.493 446.914, 22.791 447.981 C 15.171 449.710, 4.001 455.146, 4 457.127 C 4 461.751, 31.394 467.206, 44.868 465.265 C 58.616 463.284, 74.049 453.471, 86.693 438.670 C 99.334 423.871, 113.058 399.277, 129.127 362.622 C 143.913 328.893, 151.911 313.796, 162.830 299 C 188.959 263.593, 208.554 266.608, 234.322 310 C 239.711 319.075, 248.646 335.581, 254.177 346.680 L 264.233 366.861 263.345 378.012 C 262.856 384.146, 262.739 389.339, 263.085 389.552 C 263.431 389.766, 264.963 387.647, 266.489 384.842 L 269.265 379.743 277.425 395.621 C 287.023 414.298, 290.073 419.363, 299.169 431.723 C 328.300 471.310, 362.520 478.271, 393.987 451.011 C 402.341 443.774, 414.135 428.681, 422.561 414.445 C 423.426 412.984, 424.138 414.579, 426.414 423.076 C 435.287 456.205, 453.234 512.087, 464.447 541.500 C 486.569 599.530, 510.894 643.538, 533.375 666.199 C 550.996 683.963, 566.020 691.273, 585 691.319 C 604.727 691.366, 620.349 683.265, 638.961 663.335 C 645.357 656.486, 648.263 652.644, 658.126 638 C 666.388 625.734, 682.840 591.679, 691.220 569.500 C 700.355 545.322, 710.820 512.882, 716.866 490 C 718.538 483.675, 720.616 475.800, 721.485 472.500 C 726.029 455.245, 736.493 404.949, 738.545 390.500 C 738.935 387.750, 739.486 385.102, 739.769 384.616 C 740.052 384.130, 743.039 389.080, 746.405 395.616 C 770.534 442.458, 797.462 465, 826.404 462.587 C 835.241 461.850, 837.095 461.192, 834.472 459.724 C 833.030 458.917, 834.070 458.374, 839.884 456.897 C 848.229 454.778, 856.998 450.193, 856.999 447.948 C 857.001 445.260, 845.775 442.012, 829.534 440.001 C 818.548 438.640, 812.935 435.841, 804.464 427.500 C 789.252 412.520, 776.585 391.018, 758.347 349.215 C 743.212 314.523, 733.225 296.122, 719.911 278.391 C 705.346 258.993, 688.850 247.459, 672.447 245.203 C 645.002 241.429, 620.728 258.948, 596.202 300.230 L 589.234 311.960 582.202 300.230 C 578.334 293.779, 572.941 285.339, 570.217 281.475 C 541.119 240.205, 504.159 234.118, 472.555 265.391 C 461.926 275.910, 446.349 298.322, 437.729 315.500 L 434.216 322.500 433.028 318 C 412.254 239.341, 392.761 181.008, 370.708 131.500 C 349.206 83.231, 327.610 51.006, 305.567 34.295 C 298.312 28.795, 285.528 22.634, 278.201 21.105 C 271.181 19.641, 259.855 19.838, 252.808 21.547 M 257.747 54.466 C 236.139 62.706, 211.780 97.649, 187.083 155.835 C 180.550 171.228, 168.495 203.612, 162.640 221.500 C 157.499 237.207, 148.004 268.323, 148.002 269.471 C 148.001 270.005, 150.813 267.725, 154.250 264.405 C 167.397 251.705, 175.043 247.806, 190.351 245.994 C 207.607 243.951, 223.020 250.678, 239.500 267.446 C 246.221 274.284, 249.499 278.964, 260 296.712 C 266.875 308.332, 273.323 319.324, 274.329 321.139 L 276.159 324.439 279.864 315.469 C 297.012 273.966, 318.940 250.891, 343.523 248.482 C 355.608 247.298, 365.761 250.264, 378.142 258.595 C 380.934 260.474, 383.010 261.447, 382.755 260.756 C 382.500 260.065, 379.694 251.175, 376.519 241 C 350.084 156.272, 320.714 94.466, 294.506 68.413 C 283.579 57.551, 276.722 53.707, 267.550 53.302 C 264.062 53.148, 259.911 53.641, 257.747 54.466 M 505.290 273.421 C 494.102 278.640, 480.268 295.930, 467.036 321.229 C 459.147 336.311, 447 363.616, 447 366.267 C 447 368.829, 457.237 388.844, 464.230 399.955 C 480.089 425.152, 493.524 437.342, 505.500 437.401 C 521.049 437.476, 539.365 417.363, 558.328 379.391 C 564.516 366.999, 579.240 334.053, 579.284 332.500 C 579.321 331.193, 571.097 318.490, 564.069 309 C 550.982 291.328, 539.556 279.797, 529.950 274.570 C 522.394 270.457, 512.618 270.002, 505.290 273.421 M 341.718 274.094 C 336.287 275.369, 332.735 277.410, 326.761 282.687 C 315.703 292.455, 305.117 307.580, 292.089 332.228 L 285.889 343.955 291.082 355.728 C 307.535 393.026, 321.548 415.750, 335.943 428.472 C 346.527 437.828, 356.125 439.804, 365.668 434.593 C 378.488 427.593, 393.550 407.951, 407.530 380 L 412.281 370.500 409.491 359.043 C 407.251 349.843, 404.984 344.130, 397.985 330.043 C 387.496 308.932, 379.026 295.927, 369.558 286.391 C 359.296 276.056, 350.296 272.080, 341.718 274.094 M 659.995 274.390 C 645.242 278.243, 627.894 299.500, 611.609 333.681 L 604.853 347.862 608.874 358.681 C 613.512 371.160, 616.407 380.926, 615.683 381.650 C 615.032 382.301, 607.431 374.066, 603.204 368.129 C 601.392 365.583, 599.540 363.370, 599.089 363.212 C 598.639 363.053, 596.576 366.878, 594.506 371.712 C 592.435 376.545, 587.901 386.177, 584.431 393.115 C 557.488 446.980, 529.651 471.199, 499.578 466.940 C 491.243 465.759, 483.671 462.880, 476.192 458.045 L 470.175 454.157 471.530 458.328 C 483.487 495.131, 488.285 509.335, 493.716 524 C 515.480 582.768, 538.205 625.195, 558.653 645.237 C 565.501 651.949, 567.088 653.122, 574.070 656.629 C 603.341 671.331, 639.430 627.080, 675.710 532 C 684.605 508.687, 697.590 470.296, 704.965 445.500 C 717.320 403.965, 729.341 361.540, 729.325 359.530 C 729.321 358.963, 727.718 354.900, 725.764 350.500 C 711.285 317.899, 698.166 296.097, 686.300 284.915 C 675.950 275.161, 668.483 272.174, 659.995 274.390" fill="#b96615" stroke="#b96615" stroke-width="8"  fill-rule="evenodd"/></svg>